<?xml version="1.0" encoding="utf-8"?>
<svg version="1.1" xmlns="http://www.w3.org/2000/svg" xmlns:xlink="http://www.w3.org/1999/xlink" x="0px" y="0px"
	 viewBox="0 740 992 1100" style="enable-background:new 0 0 992 1417;" xml:space="preserve" fill="#FFFFFF">
<g id="logo_proportion_4_x2F_3_un_rounded">
	<g>
		<path d="M71.36,1183.96h16.53v67.94h39.44v15.96H71.36V1183.96z"/>
		<path d="M164.61,1267.86l37.85-87.21h0.91l37.85,87.21h-19.15l-24.17-61.33l11.97-8.21l-28.96,69.54H164.61z
			 M190.49,1237.54h25.19l5.81,13.91h-36.14L190.49,1237.54z"/>
		<path d="M295.03,1236.85c0,2.66,0.8,5.21,2.39,7.64c1.6,2.43,3.71,4.41,6.33,5.93c2.62,1.52,5.49,2.28,8.61,2.28
			c3.42,0,6.46-0.76,9.12-2.28c2.66-1.52,4.77-3.49,6.33-5.93c1.56-2.43,2.34-4.98,2.34-7.64v-52.9h16.3v53.24
			c0,6.16-1.52,11.61-4.56,16.36c-3.04,4.75-7.14,8.47-12.31,11.17c-5.17,2.7-10.91,4.05-17.21,4.05c-6.23,0-11.91-1.35-17.04-4.05
			c-5.13-2.7-9.22-6.42-12.25-11.17c-3.04-4.75-4.56-10.2-4.56-16.36v-53.24h16.53V1236.85z"/>
		<path d="M421.45,1183.96c5.24,0,9.92,0.67,14.02,2c4.1,1.33,7.54,3.23,10.32,5.7c2.77,2.47,4.88,5.43,6.33,8.89
			c1.44,3.46,2.17,7.35,2.17,11.69c0,3.42-0.51,6.84-1.54,10.26s-2.7,6.54-5.02,9.35c-2.32,2.81-5.38,5.07-9.18,6.78
			c-3.8,1.71-8.51,2.57-14.14,2.57h-11.86v26.68h-16.53v-83.9H421.45z M424.3,1225.23c2.51,0,4.6-0.42,6.27-1.25
			c1.67-0.84,2.98-1.9,3.93-3.19c0.95-1.29,1.63-2.64,2.05-4.05c0.42-1.41,0.63-2.72,0.63-3.93c0-0.91-0.13-2.07-0.4-3.48
			c-0.27-1.41-0.82-2.83-1.65-4.28c-0.84-1.44-2.11-2.66-3.82-3.65c-1.71-0.99-4.01-1.48-6.9-1.48h-11.86v25.31H424.3z
			 M439.81,1235.49l20.75,32.38h-19.27l-21.2-31.92L439.81,1235.49z"/>
		<path d="M503.87,1183.96h57.23v15.96h-40.7v17.9h36.02v15.96H520.4v18.13h42.29v15.96h-58.82V1183.96z"/>
		<path d="M599.97,1267.86l37.85-87.21h0.91l37.85,87.21h-19.15l-24.17-61.33l11.97-8.21l-28.96,69.54H599.97z
			 M625.85,1237.54h25.19l5.81,13.91h-36.14L625.85,1237.54z"/>
		<path d="M793.54,1271.28l-63.61-57.46l4.9,2.74l0.34,51.3h-16.76v-87.21h0.68l62.24,57.23l-3.65-1.6l-0.34-52.33H794
			v87.32H793.54z"/>
		<path d="M840.17,1226.02c0-5.78,1.1-11.25,3.31-16.42c2.2-5.17,5.26-9.75,9.18-13.74c3.91-3.99,8.45-7.12,13.62-9.41
			c5.17-2.28,10.72-3.42,16.64-3.42c5.85,0,11.36,1.14,16.53,3.42c5.17,2.28,9.75,5.42,13.74,9.41s7.11,8.57,9.35,13.74
			c2.24,5.17,3.36,10.64,3.36,16.42c0,5.93-1.12,11.48-3.36,16.64c-2.24,5.17-5.36,9.71-9.35,13.62c-3.99,3.92-8.57,6.97-13.74,9.18
			c-5.17,2.21-10.68,3.31-16.53,3.31c-5.93,0-11.48-1.1-16.64-3.31c-5.17-2.2-9.71-5.26-13.62-9.18c-3.92-3.91-6.97-8.45-9.18-13.62
			C841.27,1237.5,840.17,1231.95,840.17,1226.02z M857.27,1226.02c0,3.72,0.67,7.2,2,10.43c1.33,3.23,3.19,6.08,5.59,8.55
			c2.39,2.47,5.17,4.39,8.32,5.76c3.15,1.37,6.59,2.05,10.32,2.05c3.57,0,6.9-0.68,9.98-2.05c3.08-1.37,5.76-3.29,8.04-5.76
			c2.28-2.47,4.06-5.32,5.36-8.55c1.29-3.23,1.94-6.71,1.94-10.43c0-3.8-0.67-7.33-2-10.6c-1.33-3.27-3.15-6.14-5.47-8.61
			c-2.32-2.47-5.04-4.39-8.15-5.76c-3.12-1.37-6.5-2.05-10.15-2.05c-3.65,0-7.03,0.68-10.15,2.05c-3.12,1.37-5.85,3.29-8.21,5.76
			c-2.36,2.47-4.18,5.34-5.47,8.61C857.91,1218.69,857.27,1222.22,857.27,1226.02z"/>
		<path d="M67.16,1396.26l32.1-79.29h0.43l32.1,79.29h-5.88l-27.93-70.94l3.64-2.03l-29.21,72.97H67.16z
			 M82.67,1366.19h33.71l1.5,4.92H81.39L82.67,1366.19z"/>
		<path d="M188.07,1320.29c2.85,0,5.69,0.41,8.51,1.23c2.82,0.82,5.38,2.1,7.7,3.85c2.32,1.75,4.19,3.98,5.62,6.69
			c1.43,2.71,2.14,5.96,2.14,9.74c0,2.85-0.43,5.62-1.28,8.29c-0.86,2.68-2.25,5.08-4.17,7.22c-1.93,2.14-4.42,3.85-7.49,5.14
			c-3.07,1.28-6.85,1.93-11.34,1.93h-11.77v31.89h-5.24v-75.97H188.07z M187.42,1359.35c3.78,0,6.92-0.54,9.42-1.6
			c2.5-1.07,4.46-2.46,5.88-4.17c1.43-1.71,2.44-3.58,3.05-5.62c0.6-2.03,0.91-4.01,0.91-5.94c0-2.28-0.41-4.42-1.23-6.42
			c-0.82-2-2.02-3.76-3.58-5.3c-1.57-1.53-3.46-2.75-5.67-3.64c-2.21-0.89-4.67-1.34-7.38-1.34h-12.84v34.03H187.42z M198.34,1361.7
			l21.08,34.56h-6.1l-21.19-34.45L198.34,1361.7z"/>
		<path d="M254.3,1358.38c0-5.35,1-10.36,3-15.03c2-4.67,4.78-8.81,8.35-12.41c3.57-3.6,7.69-6.42,12.36-8.45
			c4.67-2.03,9.68-3.05,15.03-3.05c5.35,0,10.38,1.02,15.09,3.05s8.84,4.85,12.41,8.45c3.57,3.6,6.37,7.74,8.4,12.41
			c2.03,4.67,3.05,9.68,3.05,15.03s-1.02,10.36-3.05,15.03c-2.03,4.67-4.83,8.79-8.4,12.36c-3.57,3.57-7.7,6.35-12.41,8.35
			c-4.71,2-9.74,3-15.09,3c-5.35,0-10.36-0.96-15.03-2.89c-4.67-1.93-8.79-4.64-12.36-8.13c-3.57-3.49-6.35-7.6-8.35-12.3
			C255.3,1369.08,254.3,1363.95,254.3,1358.38z M259.65,1358.49c0,4.64,0.86,8.99,2.57,13.05c1.71,4.07,4.1,7.63,7.17,10.7
			c3.07,3.07,6.62,5.47,10.65,7.22c4.03,1.75,8.33,2.62,12.89,2.62c4.71,0,9.09-0.87,13.16-2.62c4.07-1.75,7.63-4.15,10.7-7.22
			c3.07-3.07,5.47-6.63,7.22-10.7c1.75-4.07,2.62-8.45,2.62-13.16c0-4.64-0.88-8.99-2.62-13.05c-1.75-4.07-4.16-7.65-7.22-10.75
			c-3.07-3.1-6.63-5.55-10.7-7.33c-4.07-1.78-8.42-2.68-13.05-2.68c-4.71,0-9.09,0.91-13.16,2.73c-4.07,1.82-7.62,4.3-10.65,7.44
			c-3.03,3.14-5.39,6.76-7.06,10.86C260.49,1349.7,259.65,1354,259.65,1358.49z M305.45,1391.23h28.68v5.03h-36.06L305.45,1391.23z"
			/>
		<path d="M379.7,1370.58c0,4.42,0.91,8.24,2.73,11.45c1.82,3.21,4.3,5.69,7.44,7.44c3.14,1.75,6.7,2.62,10.7,2.62
			c4.07,0,7.69-0.87,10.86-2.62c3.17-1.75,5.67-4.23,7.49-7.44c1.82-3.21,2.73-7.02,2.73-11.45v-50.29h5.14v50.61
			c0,5.49-1.16,10.2-3.48,14.12c-2.32,3.92-5.46,6.92-9.42,8.99c-3.96,2.07-8.4,3.1-13.32,3.1c-4.92,0-9.36-1.03-13.32-3.1
			c-3.96-2.07-7.08-5.06-9.36-8.99c-2.28-3.92-3.42-8.63-3.42-14.12v-50.61h5.24V1370.58z"/>
		<path d="M471.93,1320.29h5.24v75.97h-5.24V1320.29z"/>
		<path d="M516.66,1320.29h49.75v5.03h-22.36v70.94h-5.24v-70.94h-22.15V1320.29z"/>
		<path d="M605.9,1320.29h46.87v5.03h-41.62v30.17h37.45v5.03h-37.45v30.71h43.12v5.03H605.9V1320.29z"/>
		<path d="M750.24,1391.23c-1.64,1-3.53,1.96-5.67,2.89c-2.14,0.93-4.49,1.66-7.06,2.19c-2.57,0.54-5.35,0.8-8.35,0.8
			c-5.78,0-11.02-1.02-15.73-3.05s-8.74-4.82-12.09-8.35c-3.35-3.53-5.94-7.6-7.76-12.2c-1.82-4.6-2.73-9.5-2.73-14.71
			c0-5.56,0.96-10.74,2.89-15.51c1.93-4.78,4.64-8.95,8.13-12.52c3.49-3.57,7.56-6.35,12.2-8.35c4.64-2,9.67-3,15.09-3
			c3.99,0,7.74,0.54,11.24,1.61c3.49,1.07,6.67,2.46,9.52,4.17l-2.25,4.81c-2.5-1.57-5.31-2.89-8.45-3.96
			c-3.14-1.07-6.46-1.6-9.95-1.6c-4.49,0-8.74,0.87-12.73,2.62c-4,1.75-7.51,4.17-10.54,7.28c-3.03,3.1-5.4,6.72-7.12,10.86
			c-1.71,4.14-2.57,8.6-2.57,13.38c0,4.57,0.77,8.88,2.3,12.95c1.53,4.07,3.75,7.63,6.63,10.7c2.89,3.07,6.37,5.47,10.43,7.22
			c4.07,1.75,8.6,2.62,13.59,2.62c3.71,0,7.12-0.52,10.22-1.55c3.1-1.03,5.87-2.34,8.29-3.91L750.24,1391.23z"/>
		<path d="M784.91,1320.29h49.75v5.03H812.3v70.94h-5.24v-70.94h-22.15V1320.29z"/>
		<path d="M874.14,1320.29h46.87v5.03h-41.62v30.17h37.45v5.03h-37.45v30.71h43.12v5.03h-48.36V1320.29z"/>
	</g>
</g>
</svg>
